<svg width="22" height="16" viewBox="0 0 22 16" fill="none" xmlns="http://www.w3.org/2000/svg">
<path d="M14.4638 4C14.4638 5.54336 13.0037 7 10.9328 7C8.86195 7 7.40186 5.54336 7.40186 4C7.40186 2.45664 8.86195 1 10.9328 1C13.0037 1 14.4638 2.45664 14.4638 4Z" stroke="#939393" stroke-width="2" stroke-linecap="round"/>
<path d="M14.4904 4.04733C14.7881 3.59217 15.3023 3.2279 15.9471 3.07537C16.5924 2.92273 17.2769 3.00513 17.8415 3.29287C18.4041 3.57963 18.7753 4.0307 18.922 4.51398C19.0668 4.99116 18.9958 5.50417 18.7025 5.95267C18.4048 6.40783 17.8906 6.7721 17.2458 6.92463C16.6005 7.07727 15.916 6.99487 15.3515 6.70713C14.7889 6.42037 14.4176 5.9693 14.2709 5.48602C14.1261 5.00884 14.1971 4.49583 14.4904 4.04733L14.4904 4.04733Z" stroke="#939393" stroke-width="2"/>
<path d="M3.1628 4.04733C3.46047 3.59217 3.97467 3.2279 4.61951 3.07537C5.26476 2.92273 5.94931 3.00513 6.51384 3.29287C7.07646 3.57963 7.4477 4.0307 7.59438 4.51398C7.73921 4.99116 7.66818 5.50417 7.37487 5.95267C7.0772 6.40783 6.563 6.7721 5.91817 6.92463C5.27291 7.07727 4.58836 6.99487 4.02383 6.70713C3.46121 6.42037 3.08997 5.9693 2.94329 5.48602C2.79846 5.00884 2.86949 4.49583 3.1628 4.04733L3.1628 4.04733Z" stroke="#939393" stroke-width="2"/>
<path d="M16.4622 14L15.4872 14.2224L15.6646 15H16.4622V14ZM20.8072 12.8964L19.8798 13.2705V13.2705L20.8072 12.8964ZM14.0825 10.7105L13.5256 9.87997L12.1599 10.7957L13.6012 11.5871L14.0825 10.7105ZM19.9757 13H16.4622V15H19.9757V13ZM19.8798 13.2705C19.8714 13.2496 19.8622 13.208 19.8701 13.1561C19.8776 13.1068 19.8973 13.0689 19.9164 13.0444C19.9528 12.9978 19.9836 13 19.9757 13V15C20.5758 15 21.1361 14.7324 21.4931 14.2749C21.8619 13.8022 21.9884 13.1515 21.7346 12.5222L19.8798 13.2705ZM16.5963 11C18.6104 11 19.4781 12.2747 19.8798 13.2705L21.7346 12.5222C21.181 11.15 19.7702 9 16.5963 9V11ZM14.6394 11.5411C15.0993 11.2327 15.7241 11 16.5963 11V9C15.3391 9 14.3245 9.34427 13.5256 9.87997L14.6394 11.5411ZM13.6012 11.5871C14.8175 12.2549 15.2976 13.3911 15.4872 14.2224L17.4371 13.7776C17.1826 12.6616 16.4825 10.8875 14.5638 9.83397L13.6012 11.5871Z" fill="#939393"/>
<path d="M7.78265 10.7105L8.26393 11.5871L9.70528 10.7957L8.33957 9.87995L7.78265 10.7105ZM1.05799 12.8964L0.13062 12.5222V12.5222L1.05799 12.8964ZM5.40295 14V15H6.20051L6.3779 14.2224L5.40295 14ZM5.26891 11C6.14113 11 6.76585 11.2327 7.22573 11.5411L8.33957 9.87995C7.54067 9.34426 6.52613 9 5.26891 9V11ZM1.98536 13.2705C2.38709 12.2747 3.25476 11 5.26891 11V9C2.09503 9 0.68422 11.15 0.13062 12.5222L1.98536 13.2705ZM1.88948 13C1.88156 13 1.91236 12.9978 1.94877 13.0444C1.96789 13.0689 1.98752 13.1068 1.99503 13.1561C2.00294 13.208 1.99381 13.2496 1.98536 13.2705L0.13062 12.5222C-0.123241 13.1515 0.0032357 13.8022 0.372043 14.2748C0.729068 14.7324 1.28936 15 1.88948 15V13ZM5.40295 13H1.88948V15H5.40295V13ZM6.3779 14.2224C6.56755 13.3911 7.04765 12.2549 8.26393 11.5871L7.30137 9.83395C5.38262 10.8874 4.68259 12.6616 4.428 13.7776L6.3779 14.2224Z" fill="#939393"/>
<path d="M10.9328 10C14.9804 10 16.1354 12.5537 16.4649 14.0111C16.5867 14.5497 16.1488 15 15.5965 15H6.26904C5.71676 15 5.27881 14.5497 5.40062 14.0111C5.73017 12.5537 6.88511 10 10.9328 10Z" stroke="#939393" stroke-width="2" stroke-linecap="round"/>
</svg>
